<svg width="144" height="24" viewBox="0 0 144 24" fill="none" xmlns="http://www.w3.org/2000/svg">
<path d="M10.3646 0.825294L7.5304 6.95963L1.18926 7.9465C0.052104 8.12256 -0.403625 9.61907 0.421028 10.4762L5.0087 15.2484L3.92363 21.9897C3.72832 23.2082 4.93058 24.1209 5.93752 23.5511L11.6103 20.3681L17.283 23.5511C18.29 24.1163 19.4922 23.2082 19.2969 21.9897L18.2118 15.2484L22.7995 10.4762C23.6242 9.61907 23.1684 8.12256 22.0313 7.9465L15.6901 6.95963L12.8559 0.825294C12.3481 -0.268137 10.8768 -0.282037 10.3646 0.825294Z" fill="white"/>
<path d="M45.3646 0.825294L42.5304 6.95963L36.1893 7.9465C35.0521 8.12256 34.5964 9.61907 35.421 10.4762L40.0087 15.2484L38.9236 21.9897C38.7283 23.2082 39.9306 24.1209 40.9375 23.5511L46.6103 20.3681L52.283 23.5511C53.29 24.1163 54.4922 23.2082 54.2969 21.9897L53.2118 15.2484L57.7995 10.4762C58.6242 9.61907 58.1684 8.12256 57.0313 7.9465L50.6901 6.95963L47.8559 0.825294C47.3481 -0.268137 45.8768 -0.282037 45.3646 0.825294Z" fill="white"/>
<path d="M88.3646 0.825294L85.5304 6.95963L79.1893 7.9465C78.0521 8.12256 77.5964 9.61907 78.421 10.4762L83.0087 15.2484L81.9236 21.9897C81.7283 23.2082 82.9306 24.1209 83.9375 23.5511L89.6103 20.3681L95.283 23.5511C96.29 24.1163 97.4922 23.2082 97.2969 21.9897L96.2118 15.2484L100.799 10.4762C101.624 9.61907 101.168 8.12256 100.031 7.9465L93.6901 6.95963L90.8559 0.825294C90.3481 -0.268137 88.8768 -0.282037 88.3646 0.825294Z" fill="white"/>
<path d="M130.365 0.825294L127.53 6.95963L121.189 7.9465C120.052 8.12256 119.596 9.61907 120.421 10.4762L125.009 15.2484L123.924 21.9897C123.728 23.2082 124.931 24.1209 125.938 23.5511L131.61 20.3681L137.283 23.5511C138.29 24.1163 139.492 23.2082 139.297 21.9897L138.212 15.2484L142.799 10.4762C143.624 9.61907 143.168 8.12256 142.031 7.9465L135.69 6.95963L132.856 0.825294C132.348 -0.268137 130.877 -0.282037 130.365 0.825294Z" fill="white"/>
</svg>
