<svg width="200" height="24" viewBox="0 0 200 24" fill="none" xmlns="http://www.w3.org/2000/svg">
<path d="M10.3646 0.825294L7.5304 6.95963L1.18926 7.9465C0.052104 8.12256 -0.403625 9.61907 0.421028 10.4762L5.0087 15.2484L3.92363 21.9897C3.72832 23.2082 4.93058 24.1209 5.93752 23.5511L11.6103 20.3681L17.283 23.5511C18.29 24.1163 19.4922 23.2082 19.2969 21.9897L18.2118 15.2484L22.7995 10.4762C23.6242 9.61907 23.1684 8.12256 22.0313 7.9465L15.6901 6.95963L12.8559 0.825294C12.3481 -0.268137 10.8768 -0.282037 10.3646 0.825294Z" fill="white"/>
<path d="M54.3646 0.825294L51.5304 6.95963L45.1893 7.9465C44.0521 8.12256 43.5964 9.61907 44.421 10.4762L49.0087 15.2484L47.9236 21.9897C47.7283 23.2082 48.9306 24.1209 49.9375 23.5511L55.6103 20.3681L61.283 23.5511C62.29 24.1163 63.4922 23.2082 63.2969 21.9897L62.2118 15.2484L66.7995 10.4762C67.6242 9.61907 67.1684 8.12256 66.0313 7.9465L59.6901 6.95963L56.8559 0.825294C56.3481 -0.268137 54.8768 -0.282037 54.3646 0.825294Z" fill="white"/>
<path d="M98.3646 0.825294L95.5304 6.95963L89.1893 7.9465C88.0521 8.12256 87.5964 9.61907 88.421 10.4762L93.0087 15.2484L91.9236 21.9897C91.7283 23.2082 92.9306 24.1209 93.9375 23.5511L99.6103 20.3681L105.283 23.5511C106.29 24.1163 107.492 23.2082 107.297 21.9897L106.212 15.2484L110.799 10.4762C111.624 9.61907 111.168 8.12256 110.031 7.9465L103.69 6.95963L100.856 0.825294C100.348 -0.268137 98.8768 -0.282037 98.3646 0.825294Z" fill="white"/>
<path d="M142.365 0.825294L139.53 6.95963L133.189 7.9465C132.052 8.12256 131.596 9.61907 132.421 10.4762L137.009 15.2484L135.924 21.9897C135.728 23.2082 136.931 24.1209 137.938 23.5511L143.61 20.3681L149.283 23.5511C150.29 24.1163 151.492 23.2082 151.297 21.9897L150.212 15.2484L154.799 10.4762C155.624 9.61907 155.168 8.12256 154.031 7.9465L147.69 6.95963L144.856 0.825294C144.348 -0.268137 142.877 -0.282037 142.365 0.825294Z" fill="white"/>
<path d="M186.365 0.825294L183.53 6.95963L177.189 7.9465C176.052 8.12256 175.596 9.61907 176.421 10.4762L181.009 15.2484L179.924 21.9897C179.728 23.2082 180.931 24.1209 181.938 23.5511L187.61 20.3681L193.283 23.5511C194.29 24.1163 195.492 23.2082 195.297 21.9897L194.212 15.2484L198.799 10.4762C199.624 9.61907 199.168 8.12256 198.031 7.9465L191.69 6.95963L188.856 0.825294C188.348 -0.268137 186.877 -0.282037 186.365 0.825294Z" fill="white"/>
</svg>
