<svg width="1174" height="1241" viewBox="0 0 1174 1241" fill="none" xmlns="http://www.w3.org/2000/svg">
<path d="M655.667 764.828C548.477 741.293 469.913 708.225 419.131 666.653C221.841 519.997 507.468 289.177 609.45 512.853C639.168 573.186 654.994 656.919 655.794 764.726L655.667 764.828ZM1072.13 682.989C1014.38 793.345 876.818 802.984 734.203 780.528C732.598 329.404 491.564 280.951 354.287 391.887C238.227 485.676 253.408 635.183 370.319 728.499C434.599 778.085 529.725 816.691 654.534 844.91C647.089 976.318 616.171 1059.18 567.977 1105.89C474.948 1206.91 309.846 1171.67 262.412 1035.98C227.734 927.795 105.404 358.75 96.5236 329.822C78.6761 239.653 52.9349 165.393 124.405 107.637C192.748 52.408 260.229 88.1022 353.785 130.516C549.945 217.632 844.393 351.374 1003.02 437.481C1087.09 484.575 1121.35 589.826 1072.13 682.989ZM939.997 316.307C201.219 -40.7691 179.448 -36.8452 75.624 47.0567C-20.5712 124.794 -7.61071 224.478 20.4888 344.797C157.16 972.827 186.58 1053.71 189.154 1060.75C253.747 1249.7 467.038 1289.02 599.941 1181.62C645.819 1144.55 717.721 1065.36 731.301 858.421C963.759 892.413 1051.39 816.794 1074.87 797.82C1207.86 690.525 1214.09 473.626 1042.87 370.848C1036.29 362.629 941.174 317.72 940.018 316.29L939.997 316.307Z" fill="white" fill-opacity="0.1"/>
</svg>
