<svg width="43" height="43" viewBox="0 0 43 43" fill="none" xmlns="http://www.w3.org/2000/svg">
<path d="M17.9007 25.0513C17.9007 26.9038 16.5569 27.4893 14.906 27.4893H10.5772V22.4118H14.9924C16.7777 22.4214 17.9007 23.1605 17.9007 25.0513ZM17.1616 17.152C17.1616 15.4531 15.8467 15.05 14.3877 15.05H10.5868V19.35H14.6853C16.1346 19.35 17.1616 18.7165 17.1616 17.152ZM29.86 19.3788C28.1036 19.3788 26.9326 20.473 26.8174 22.2295H32.7875C32.6243 20.4538 31.7029 19.3788 29.86 19.3788ZM43 4.60714V38.3929C43 40.9364 40.9364 43 38.3929 43H4.60714C2.06362 43 0 40.9364 0 38.3929V4.60714C0 2.06362 2.06362 0 4.60714 0H38.3929C40.9364 0 43 2.06362 43 4.60714ZM26.0783 14.6853H33.5458V12.8712H26.0783V14.6853ZM21.9511 25.2721C21.9511 22.9589 20.8569 20.9625 18.5917 20.3194C20.2426 19.5324 21.1065 18.6205 21.1065 16.7681C21.1065 13.1016 18.371 12.2089 15.2132 12.2089H6.52679V30.6375H15.4627C18.8125 30.6183 21.9511 29.0154 21.9511 25.2721ZM36.4732 23.8516C36.4732 19.9067 34.16 16.6145 29.9848 16.6145C25.9152 16.6145 23.1605 19.6667 23.1605 23.6788C23.1605 27.8348 25.7808 30.6855 29.9848 30.6855C33.1714 30.6855 35.235 29.2554 36.2333 26.1935H32.9987C32.6435 27.3357 31.2134 27.9308 30.1 27.9308C27.95 27.9308 26.827 26.6734 26.827 24.5426H36.4444C36.454 24.3219 36.4732 24.0819 36.4732 23.8516Z" fill="white"/>
</svg>
