<svg width="43" height="43" viewBox="0 0 43 43" fill="none" xmlns="http://www.w3.org/2000/svg">
<path d="M0 0V43H43V0H0ZM35.7246 10.1837L33.421 12.3913C33.2194 12.5449 33.1234 12.7944 33.1618 13.0344V29.2842C33.1234 29.5337 33.2194 29.7833 33.421 29.9272L35.6766 32.1348V32.6243H24.3507V32.154L26.683 29.8888C26.9134 29.6585 26.9134 29.5913 26.9134 29.2458V16.1058L20.425 32.5763H19.5516L11.9978 16.1058V27.1437C11.9306 27.6045 12.0937 28.0748 12.4201 28.4107L15.4531 32.0868V32.5763H6.83393V32.0868L9.86696 28.4107C10.1933 28.0748 10.3373 27.6045 10.2605 27.1437V14.3781C10.2989 14.023 10.1645 13.6775 9.89576 13.4375L7.19866 10.1837V9.6942H15.5779L22.0471 23.8996L27.7388 9.7038H35.7246V10.1837Z" fill="white"/>
</svg>
