<svg width="57" height="66" viewBox="0 0 57 66" fill="none" xmlns="http://www.w3.org/2000/svg">
<path d="M28.5008 49.5813C25.0507 44.9781 23.0222 40.9432 22.3497 37.4912C19.2673 24.7005 37.7424 24.7005 34.66 37.4912C33.9151 41.0159 31.8866 45.0493 28.509 49.5813H28.5008ZM47.3846 60.2251C41.6354 62.8865 35.9477 58.6437 31.0774 52.8894C45.2796 33.9839 37.3802 23.8197 28.5008 23.8197C20.9937 23.8197 16.8602 30.5799 18.4841 38.4272C19.4313 42.6699 21.9328 47.4955 25.9241 52.8894C21.4776 58.1292 17.6475 60.5478 14.2849 60.8719C7.45037 61.9519 2.10439 54.9039 4.53886 47.6321C6.60289 41.9403 19.81 14.0305 20.3772 12.5218C22.5301 8.15114 23.871 4.17877 28.4939 4.17877C32.9145 4.17877 34.4263 7.94911 36.746 12.8808C41.6668 23.1453 48.9593 38.6772 52.4435 47.6321C54.2437 52.4388 52.2563 57.994 47.3846 60.2251ZM53.8091 40.4403C36.1924 0.571223 35.2164 0 28.5008 0C22.2786 0 19.6336 4.60319 16.9285 10.5799C2.41741 41.4388 1.01087 45.8124 0.889213 46.1932C-2.55813 56.2702 4.54432 65.1161 13.1408 65.1161C16.1084 65.1161 21.4256 64.2353 28.5008 56.0464C36.5218 65.3167 42.3421 65.1161 43.8607 65.1161C52.4572 65.1234 59.5597 56.2702 56.1096 46.1932C56.1123 45.6278 53.8104 40.5391 53.8104 40.4403H53.8091Z" fill="white"/>
</svg>
